<?xml version="1.0" standalone="no"?>
<!DOCTYPE svg PUBLIC "-//W3C//DTD SVG 20010904//EN"
 "http://www.w3.org/TR/2001/REC-SVG-20010904/DTD/svg10.dtd">
<svg version="1.0" xmlns="http://www.w3.org/2000/svg"
 width="300.000000pt" height="300.000000pt" viewBox="0 0 300.000000 300.000000"
 preserveAspectRatio="xMidYMid meet">
<metadata>
Created by potrace 1.14, written by Peter Selinger 2001-2017
</metadata>
<g transform="translate(0.000000,300.000000) scale(0.100000,-0.100000)"
fill="#000000" stroke="none">
<path d="M1144 2848 c-20 -12 -42 -41 -63 -83 l-31 -65 -304 0 c-185 0 -314
-4 -332 -10 -55 -20 -69 -53 -72 -175 -3 -85 0 -114 12 -130 14 -20 27 -20
1152 -21 l1138 -1 22 22 c20 20 23 32 22 121 0 109 -10 140 -57 173 -28 20
-41 21 -343 21 l-314 0 -29 63 c-52 109 -38 105 -433 105 -309 -1 -340 -3
-368 -20z"/>
<path d="M553 2189 c-34 -13 -45 -43 -39 -117 3 -37 8 -110 11 -162 11 -193
15 -256 20 -315 2 -33 7 -112 11 -175 3 -63 7 -137 9 -165 1 -27 6 -104 10
-170 3 -66 8 -138 10 -160 4 -41 16 -237 20 -335 11 -226 30 -291 100 -347 77
-62 60 -61 824 -59 662 1 698 2 731 20 50 27 80 52 107 88 38 52 41 74 58 363
3 50 7 122 10 160 3 39 8 115 11 170 3 55 7 125 9 155 6 96 22 348 30 500 3
52 7 118 10 145 7 96 19 300 18 338 0 78 80 72 -986 73 -524 0 -963 -3 -974
-7z m832 -291 c17 -9 51 -38 76 -65 43 -45 45 -51 32 -69 -8 -10 -53 -83 -100
-161 -47 -79 -87 -143 -91 -143 -5 0 -203 114 -234 135 -16 11 -10 24 63 141
91 144 105 163 134 174 29 11 85 6 120 -12z m404 -12 c12 -11 27 -30 34 -42 7
-12 22 -40 34 -62 13 -22 27 -43 32 -47 6 -3 29 6 52 20 22 15 43 24 46 22 2
-3 -32 -66 -76 -140 l-81 -135 -48 4 c-26 2 -93 6 -150 8 -57 2 -105 6 -108 8
-2 3 20 18 51 34 l55 30 -35 73 c-44 92 -96 170 -143 216 l-37 36 176 -3 c158
-3 179 -5 198 -22z m291 -471 c45 -76 84 -153 86 -170 10 -62 -52 -133 -135
-154 -91 -24 -83 -26 -115 31 -17 29 -60 102 -98 161 -37 59 -68 110 -68 113
0 2 26 20 58 40 96 60 136 86 162 104 14 10 26 17 26 16 1 0 39 -64 84 -141z
m-943 66 c31 -1 34 -5 92 -126 84 -176 84 -174 20 -131 -37 25 -56 32 -65 25
-34 -28 -122 -174 -150 -248 -24 -62 -33 -79 -38 -64 -4 11 -38 78 -76 149
-38 71 -70 140 -70 154 0 14 20 60 45 102 25 43 45 79 45 82 0 3 -20 17 -45
32 -25 14 -45 28 -45 31 0 3 57 2 128 -1 70 -2 141 -5 159 -5z m574 -369 l2
-62 51 -1 c148 -5 238 3 290 25 20 8 36 12 36 8 0 -13 -123 -247 -146 -279
-27 -35 -48 -42 -158 -46 l-70 -3 3 -60 c1 -36 -1 -55 -7 -49 -5 6 -43 66 -86
134 -49 78 -75 130 -71 140 9 24 148 261 152 258 1 -2 3 -31 4 -65z m-441 -67
c36 -1 94 -3 128 -4 l64 -1 -7 -142 c-3 -78 -9 -146 -11 -150 -3 -4 -24 -6
-47 -3 -70 7 -241 18 -264 17 -32 -2 -89 58 -97 101 -7 39 -3 65 22 144 l16
53 66 -6 c36 -4 94 -8 130 -9z"/>
</g>
</svg>
